solid OpenSCAD_Model
  facet normal -1 0 0
    outer loop
      vertex 0 -18 0
      vertex 0 -18 1220
      vertex 0 0 1220
    endloop
  endfacet
  facet normal 0 -1 0
    outer loop
      vertex 0 -18 0
      vertex 720 -18 1220
      vertex 0 -18 1220
    endloop
  endfacet
  facet normal 0 0 1
    outer loop
      vertex 0 -18 1220
      vertex 720 -18 1220
      vertex 0 0 1220
    endloop
  endfacet
  facet normal -1 0 0
    outer loop
      vertex 0 -18 0
      vertex 0 0 1220
      vertex 0 0 0
    endloop
  endfacet
  facet normal 0 0 -1
    outer loop
      vertex 0 -18 0
      vertex 0 0 0
      vertex 720 0 0
    endloop
  endfacet
  facet normal 0 1 0
    outer loop
      vertex 0 0 0
      vertex 0 0 1220
      vertex 720 0 0
    endloop
  endfacet
  facet normal 0 1 0
    outer loop
      vertex 0 0 1220
      vertex 59 0 1171
      vertex 59 0 1131
    endloop
  endfacet
  facet normal 0 1 0
    outer loop
      vertex 0 0 1220
      vertex 59 0 1131
      vertex 720 0 0
    endloop
  endfacet
  facet normal 0 1 0
    outer loop
      vertex 0 0 1220
      vertex 720 0 1220
      vertex 59 0 1171
    endloop
  endfacet
  facet normal 0 -1 0
    outer loop
      vertex 0 -18 0
      vertex 720 -18 0
      vertex 720 -18 1220
    endloop
  endfacet
  facet normal 0 0 -1
    outer loop
      vertex 0 -18 0
      vertex 720 0 0
      vertex 720 -18 0
    endloop
  endfacet
  facet normal 1 0 0
    outer loop
      vertex 720 -18 0
      vertex 720 0 0
      vertex 720 -18 1220
    endloop
  endfacet
  facet normal 0 0 1
    outer loop
      vertex 0 0 1220
      vertex 720 -18 1220
      vertex 720 0 1220
    endloop
  endfacet
  facet normal 0 1 0
    outer loop
      vertex 720 0 0
      vertex 59 0 1131
      vertex 661 0 1131
    endloop
  endfacet
  facet normal 0 1 0
    outer loop
      vertex 720 0 1220
      vertex 661 0 1171
      vertex 59 0 1171
    endloop
  endfacet
  facet normal 1 0 0
    outer loop
      vertex 720 -18 1220
      vertex 720 0 0
      vertex 720 0 1220
    endloop
  endfacet
  facet normal 0 1 0
    outer loop
      vertex 720 0 0
      vertex 661 0 1131
      vertex 661 0 1171
    endloop
  endfacet
  facet normal 0 1 0
    outer loop
      vertex 720 0 0
      vertex 661 0 1171
      vertex 720 0 1220
    endloop
  endfacet
  facet normal 1 0 0
    outer loop
      vertex 59 -6.01 1131
      vertex 59 0 1131
      vertex 59 -6.01 1171
    endloop
  endfacet
  facet normal 1 0 0
    outer loop
      vertex 59 -6.01 1171
      vertex 59 0 1131
      vertex 59 0 1171
    endloop
  endfacet
  facet normal 0 1 0
    outer loop
      vertex 59 -6.01 1131
      vertex 59 -6.01 1171
      vertex 661 -6.01 1171
    endloop
  endfacet
  facet normal 0 0 -1
    outer loop
      vertex 59 -6.01 1171
      vertex 59 0 1171
      vertex 661 -6.01 1171
    endloop
  endfacet
  facet normal 0 0 1
    outer loop
      vertex 59 -6.01 1131
      vertex 661 0 1131
      vertex 59 0 1131
    endloop
  endfacet
  facet normal 0 1 0
    outer loop
      vertex 59 -6.01 1131
      vertex 661 -6.01 1171
      vertex 661 -6.01 1131
    endloop
  endfacet
  facet normal 0 0 1
    outer loop
      vertex 59 -6.01 1131
      vertex 661 -6.01 1131
      vertex 661 0 1131
    endloop
  endfacet
  facet normal 0 0 -1
    outer loop
      vertex 661 -6.01 1171
      vertex 59 0 1171
      vertex 661 0 1171
    endloop
  endfacet
  facet normal -1 0 0
    outer loop
      vertex 661 -6.01 1131
      vertex 661 -6.01 1171
      vertex 661 0 1171
    endloop
  endfacet
  facet normal -1 0 0
    outer loop
      vertex 661 -6.01 1131
      vertex 661 0 1171
      vertex 661 0 1131
    endloop
  endfacet
endsolid OpenSCAD_Model
