solid OpenSCAD_Model
  facet normal -1 0 0
    outer loop
      vertex 0 -750 950
      vertex 0 -750 990
      vertex 0 0 990
    endloop
  endfacet
  facet normal 0 0 -1
    outer loop
      vertex 0 -750 950
      vertex 0 0 950
      vertex 60 -690 950
    endloop
  endfacet
  facet normal 0 0 -1
    outer loop
      vertex 0 0 950
      vertex 60 -620 950
      vertex 60 -690 950
    endloop
  endfacet
  facet normal 0 0 -1
    outer loop
      vertex 60 -620 950
      vertex 60 -130 950
      vertex 130 -620 950
    endloop
  endfacet
  facet normal 0 -1 0
    outer loop
      vertex 0 -750 950
      vertex 1500 -750 990
      vertex 0 -750 990
    endloop
  endfacet
  facet normal 0 0 -1
    outer loop
      vertex 0 -750 950
      vertex 60 -690 950
      vertex 1500 -750 950
    endloop
  endfacet
  facet normal 0 0 -1
    outer loop
      vertex 1500 -750 950
      vertex 60 -690 950
      vertex 130 -690 950
    endloop
  endfacet
  facet normal 0 0 1
    outer loop
      vertex 0 -750 990
      vertex 1500 -750 990
      vertex 0 0 990
    endloop
  endfacet
  facet normal 0 0 -1
    outer loop
      vertex 130 -620 950
      vertex 1370 -60 950
      vertex 130 -690 950
    endloop
  endfacet
  facet normal 0 0 -1
    outer loop
      vertex 130 -620 950
      vertex 60 -130 950
      vertex 130 -130 950
    endloop
  endfacet
  facet normal 0 0 -1
    outer loop
      vertex 0 0 950
      vertex 60 -130 950
      vertex 60 -620 950
    endloop
  endfacet
  facet normal -1 0 0
    outer loop
      vertex 0 -750 950
      vertex 0 0 990
      vertex 0 0 950
    endloop
  endfacet
  facet normal 0 0 -1
    outer loop
      vertex 0 0 950
      vertex 60 -60 950
      vertex 60 -130 950
    endloop
  endfacet
  facet normal 0 0 -1
    outer loop
      vertex 130 -620 950
      vertex 130 -130 950
      vertex 1370 -60 950
    endloop
  endfacet
  facet normal 0 1 0
    outer loop
      vertex 0 0 950
      vertex 0 0 990
      vertex 1500 0 950
    endloop
  endfacet
  facet normal 0 0 -1
    outer loop
      vertex 0 0 950
      vertex 1500 0 950
      vertex 60 -60 950
    endloop
  endfacet
  facet normal 0 0 -1
    outer loop
      vertex 1500 0 950
      vertex 130 -130 950
      vertex 130 -60 950
    endloop
  endfacet
  facet normal 0 0 -1
    outer loop
      vertex 1500 0 950
      vertex 130 -60 950
      vertex 60 -60 950
    endloop
  endfacet
  facet normal 0 -1 0
    outer loop
      vertex 0 -750 950
      vertex 1500 -750 950
      vertex 1500 -750 990
    endloop
  endfacet
  facet normal 0 0 -1
    outer loop
      vertex 1500 -750 950
      vertex 130 -690 950
      vertex 1370 -690 950
    endloop
  endfacet
  facet normal 0 0 -1
    outer loop
      vertex 1370 -620 950
      vertex 1370 -690 950
      vertex 130 -690 950
    endloop
  endfacet
  facet normal 0 0 -1
    outer loop
      vertex 1370 -620 950
      vertex 130 -690 950
      vertex 1370 -130 950
    endloop
  endfacet
  facet normal 0 0 -1
    outer loop
      vertex 1500 -750 950
      vertex 1370 -690 950
      vertex 1440 -690 950
    endloop
  endfacet
  facet normal 0 0 -1
    outer loop
      vertex 1500 -750 950
      vertex 1440 -690 950
      vertex 1440 -620 950
    endloop
  endfacet
  facet normal 0 0 -1
    outer loop
      vertex 1500 -750 950
      vertex 1440 -620 950
      vertex 1440 -130 950
    endloop
  endfacet
  facet normal 1 0 0
    outer loop
      vertex 1500 -750 950
      vertex 1500 0 950
      vertex 1500 -750 990
    endloop
  endfacet
  facet normal 0 0 -1
    outer loop
      vertex 1370 -620 950
      vertex 1370 -130 950
      vertex 1440 -620 950
    endloop
  endfacet
  facet normal 0 0 -1
    outer loop
      vertex 1370 -130 950
      vertex 130 -690 950
      vertex 1370 -60 950
    endloop
  endfacet
  facet normal 0 0 1
    outer loop
      vertex 0 0 990
      vertex 1500 -750 990
      vertex 1500 0 990
    endloop
  endfacet
  facet normal 0 0 -1
    outer loop
      vertex 1500 0 950
      vertex 1370 -60 950
      vertex 130 -130 950
    endloop
  endfacet
  facet normal 0 1 0
    outer loop
      vertex 0 0 990
      vertex 1500 0 990
      vertex 1500 0 950
    endloop
  endfacet
  facet normal 0 0 -1
    outer loop
      vertex 1440 -620 950
      vertex 1370 -130 950
      vertex 1440 -130 950
    endloop
  endfacet
  facet normal 0 0 -1
    outer loop
      vertex 1500 -750 950
      vertex 1440 -130 950
      vertex 1440 -60 950
    endloop
  endfacet
  facet normal 0 0 -1
    outer loop
      vertex 1500 -750 950
      vertex 1440 -60 950
      vertex 1500 0 950
    endloop
  endfacet
  facet normal 1 0 0
    outer loop
      vertex 1500 -750 990
      vertex 1500 0 950
      vertex 1500 0 990
    endloop
  endfacet
  facet normal 0 0 -1
    outer loop
      vertex 1500 0 950
      vertex 1440 -60 950
      vertex 1370 -60 950
    endloop
  endfacet
  facet normal 0 0 -1
    outer loop
      vertex 60 -130 0
      vertex 130 -60 0
      vertex 130 -130 0
    endloop
  endfacet
  facet normal 0 0 -1
    outer loop
      vertex 60 -130 0
      vertex 60 -60 0
      vertex 130 -60 0
    endloop
  endfacet
  facet normal 0 -1 0
    outer loop
      vertex 60 -130 0
      vertex 130 -130 0
      vertex 130 -130 950
    endloop
  endfacet
  facet normal 1 0 0
    outer loop
      vertex 130 -130 0
      vertex 130 -60 0
      vertex 130 -130 950
    endloop
  endfacet
  facet normal -1 0 0
    outer loop
      vertex 60 -130 0
      vertex 60 -60 950
      vertex 60 -60 0
    endloop
  endfacet
  facet normal 0 1 0
    outer loop
      vertex 60 -60 0
      vertex 60 -60 950
      vertex 130 -60 0
    endloop
  endfacet
  facet normal 0 -1 0
    outer loop
      vertex 60 -130 0
      vertex 130 -130 950
      vertex 60 -130 950
    endloop
  endfacet
  facet normal -1 0 0
    outer loop
      vertex 60 -130 0
      vertex 60 -130 950
      vertex 60 -60 950
    endloop
  endfacet
  facet normal 1 0 0
    outer loop
      vertex 130 -60 0
      vertex 130 -60 950
      vertex 130 -130 950
    endloop
  endfacet
  facet normal 0 1 0
    outer loop
      vertex 130 -60 0
      vertex 60 -60 950
      vertex 130 -60 950
    endloop
  endfacet
  facet normal 0 0 -1
    outer loop
      vertex 1370 -130 0
      vertex 1440 -60 0
      vertex 1440 -130 0
    endloop
  endfacet
  facet normal 0 0 -1
    outer loop
      vertex 1370 -130 0
      vertex 1370 -60 0
      vertex 1440 -60 0
    endloop
  endfacet
  facet normal 0 -1 0
    outer loop
      vertex 1370 -130 0
      vertex 1440 -130 0
      vertex 1440 -130 950
    endloop
  endfacet
  facet normal 1 0 0
    outer loop
      vertex 1440 -130 0
      vertex 1440 -60 0
      vertex 1440 -130 950
    endloop
  endfacet
  facet normal -1 0 0
    outer loop
      vertex 1370 -130 0
      vertex 1370 -60 950
      vertex 1370 -60 0
    endloop
  endfacet
  facet normal 0 1 0
    outer loop
      vertex 1370 -60 0
      vertex 1370 -60 950
      vertex 1440 -60 0
    endloop
  endfacet
  facet normal 0 -1 0
    outer loop
      vertex 1370 -130 0
      vertex 1440 -130 950
      vertex 1370 -130 950
    endloop
  endfacet
  facet normal -1 0 0
    outer loop
      vertex 1370 -130 0
      vertex 1370 -130 950
      vertex 1370 -60 950
    endloop
  endfacet
  facet normal 1 0 0
    outer loop
      vertex 1440 -60 0
      vertex 1440 -60 950
      vertex 1440 -130 950
    endloop
  endfacet
  facet normal 0 1 0
    outer loop
      vertex 1440 -60 0
      vertex 1370 -60 950
      vertex 1440 -60 950
    endloop
  endfacet
  facet normal 0 0 -1
    outer loop
      vertex 60 -690 0
      vertex 130 -620 0
      vertex 130 -690 0
    endloop
  endfacet
  facet normal 0 0 -1
    outer loop
      vertex 60 -690 0
      vertex 60 -620 0
      vertex 130 -620 0
    endloop
  endfacet
  facet normal 0 -1 0
    outer loop
      vertex 60 -690 0
      vertex 130 -690 0
      vertex 130 -690 950
    endloop
  endfacet
  facet normal 1 0 0
    outer loop
      vertex 130 -690 0
      vertex 130 -620 0
      vertex 130 -690 950
    endloop
  endfacet
  facet normal -1 0 0
    outer loop
      vertex 60 -690 0
      vertex 60 -620 950
      vertex 60 -620 0
    endloop
  endfacet
  facet normal 0 1 0
    outer loop
      vertex 60 -620 0
      vertex 60 -620 950
      vertex 130 -620 0
    endloop
  endfacet
  facet normal 0 -1 0
    outer loop
      vertex 60 -690 0
      vertex 130 -690 950
      vertex 60 -690 950
    endloop
  endfacet
  facet normal -1 0 0
    outer loop
      vertex 60 -690 0
      vertex 60 -690 950
      vertex 60 -620 950
    endloop
  endfacet
  facet normal 1 0 0
    outer loop
      vertex 130 -620 0
      vertex 130 -620 950
      vertex 130 -690 950
    endloop
  endfacet
  facet normal 0 1 0
    outer loop
      vertex 130 -620 0
      vertex 60 -620 950
      vertex 130 -620 950
    endloop
  endfacet
  facet normal 0 0 -1
    outer loop
      vertex 1370 -690 0
      vertex 1440 -620 0
      vertex 1440 -690 0
    endloop
  endfacet
  facet normal 0 0 -1
    outer loop
      vertex 1370 -690 0
      vertex 1370 -620 0
      vertex 1440 -620 0
    endloop
  endfacet
  facet normal 0 -1 0
    outer loop
      vertex 1370 -690 0
      vertex 1440 -690 0
      vertex 1440 -690 950
    endloop
  endfacet
  facet normal 1 0 0
    outer loop
      vertex 1440 -690 0
      vertex 1440 -620 0
      vertex 1440 -690 950
    endloop
  endfacet
  facet normal -1 0 0
    outer loop
      vertex 1370 -690 0
      vertex 1370 -620 950
      vertex 1370 -620 0
    endloop
  endfacet
  facet normal 0 1 0
    outer loop
      vertex 1370 -620 0
      vertex 1370 -620 950
      vertex 1440 -620 0
    endloop
  endfacet
  facet normal 0 -1 0
    outer loop
      vertex 1370 -690 0
      vertex 1440 -690 950
      vertex 1370 -690 950
    endloop
  endfacet
  facet normal -1 0 0
    outer loop
      vertex 1370 -690 0
      vertex 1370 -690 950
      vertex 1370 -620 950
    endloop
  endfacet
  facet normal 1 0 0
    outer loop
      vertex 1440 -620 0
      vertex 1440 -620 950
      vertex 1440 -690 950
    endloop
  endfacet
  facet normal 0 1 0
    outer loop
      vertex 1440 -620 0
      vertex 1370 -620 950
      vertex 1440 -620 950
    endloop
  endfacet
endsolid OpenSCAD_Model
