solid OpenSCAD_Model
  facet normal 0 -1 0
    outer loop
      vertex 0 0 0
      vertex 480 0 1060
      vertex 0 0 2600
    endloop
  endfacet
  facet normal 0 -1 0
    outer loop
      vertex 0 0 0
      vertex 1260 0 1060
      vertex 480 0 1060
    endloop
  endfacet
  facet normal 0 0 -1
    outer loop
      vertex 0 0 0
      vertex 0 90 0
      vertex 2000 0 0
    endloop
  endfacet
  facet normal 0 -1 0
    outer loop
      vertex 0 0 0
      vertex 2000 0 0
      vertex 1260 0 1060
    endloop
  endfacet
  facet normal 0 -1 0
    outer loop
      vertex 2000 0 0
      vertex 2000 0 2300
      vertex 1260 0 1060
    endloop
  endfacet
  facet normal 0 -1 0
    outer loop
      vertex 0 0 2600
      vertex 480 0 1060
      vertex 480 0 2400
    endloop
  endfacet
  facet normal 0 -1 0
    outer loop
      vertex 0 0 2600
      vertex 480 0 2400
      vertex 1260 0 2400
    endloop
  endfacet
  facet normal -1 0 0
    outer loop
      vertex 0 0 0
      vertex 0 0 2600
      vertex 0 90 2600
    endloop
  endfacet
  facet normal 0 -1 0
    outer loop
      vertex 1260 0 2400
      vertex 1260 0 1060
      vertex 2000 0 2300
    endloop
  endfacet
  facet normal 0 -1 0
    outer loop
      vertex 0 0 2600
      vertex 1260 0 2400
      vertex 3800 0 2600
    endloop
  endfacet
  facet normal 0 0 1
    outer loop
      vertex 0 0 2600
      vertex 3800 0 2600
      vertex 0 90 2600
    endloop
  endfacet
  facet normal -1 0 0
    outer loop
      vertex 0 0 0
      vertex 0 90 2600
      vertex 0 90 0
    endloop
  endfacet
  facet normal 0 1 0
    outer loop
      vertex 0 90 0
      vertex 0 90 2600
      vertex 480 90 1060
    endloop
  endfacet
  facet normal 0 1 0
    outer loop
      vertex 0 90 0
      vertex 480 90 1060
      vertex 1260 90 1060
    endloop
  endfacet
  facet normal 0 0 -1
    outer loop
      vertex 0 90 0
      vertex 2000 90 0
      vertex 2000 0 0
    endloop
  endfacet
  facet normal 0 1 0
    outer loop
      vertex 0 90 0
      vertex 1260 90 1060
      vertex 2000 90 0
    endloop
  endfacet
  facet normal 0 1 0
    outer loop
      vertex 2000 90 0
      vertex 1260 90 1060
      vertex 1260 90 2400
    endloop
  endfacet
  facet normal 0 1 0
    outer loop
      vertex 0 90 2600
      vertex 480 90 2400
      vertex 480 90 1060
    endloop
  endfacet
  facet normal 0 1 0
    outer loop
      vertex 0 90 2600
      vertex 1260 90 2400
      vertex 480 90 2400
    endloop
  endfacet
  facet normal 0 1 0
    outer loop
      vertex 1260 90 2400
      vertex 2000 90 2300
      vertex 2000 90 0
    endloop
  endfacet
  facet normal 0 1 0
    outer loop
      vertex 0 90 2600
      vertex 3800 90 2600
      vertex 1260 90 2400
    endloop
  endfacet
  facet normal 0 -1 0
    outer loop
      vertex 3800 0 0
      vertex 3800 0 2600
      vertex 2900 0 0
    endloop
  endfacet
  facet normal 0 0 -1
    outer loop
      vertex 3800 0 0
      vertex 2900 0 0
      vertex 2900 90 0
    endloop
  endfacet
  facet normal 1 0 0
    outer loop
      vertex 3800 0 0
      vertex 3800 90 0
      vertex 3800 0 2600
    endloop
  endfacet
  facet normal 0 -1 0
    outer loop
      vertex 3800 0 2600
      vertex 1260 0 2400
      vertex 2000 0 2300
    endloop
  endfacet
  facet normal 0 -1 0
    outer loop
      vertex 3800 0 2600
      vertex 2900 0 2300
      vertex 2900 0 0
    endloop
  endfacet
  facet normal 0 -1 0
    outer loop
      vertex 3800 0 2600
      vertex 2000 0 2300
      vertex 2900 0 2300
    endloop
  endfacet
  facet normal 0 0 -1
    outer loop
      vertex 3800 0 0
      vertex 2900 90 0
      vertex 3800 90 0
    endloop
  endfacet
  facet normal 0 1 0
    outer loop
      vertex 3800 90 0
      vertex 2900 90 0
      vertex 2900 90 2300
    endloop
  endfacet
  facet normal 0 0 1
    outer loop
      vertex 0 90 2600
      vertex 3800 0 2600
      vertex 3800 90 2600
    endloop
  endfacet
  facet normal 0 1 0
    outer loop
      vertex 3800 90 2600
      vertex 2000 90 2300
      vertex 1260 90 2400
    endloop
  endfacet
  facet normal 1 0 0
    outer loop
      vertex 3800 0 2600
      vertex 3800 90 0
      vertex 3800 90 2600
    endloop
  endfacet
  facet normal 0 1 0
    outer loop
      vertex 3800 90 0
      vertex 2900 90 2300
      vertex 3800 90 2600
    endloop
  endfacet
  facet normal 0 1 0
    outer loop
      vertex 3800 90 2600
      vertex 2900 90 2300
      vertex 2000 90 2300
    endloop
  endfacet
  facet normal 0 0 1
    outer loop
      vertex 480 0 1060
      vertex 1260 0 1060
      vertex 1260 90 1060
    endloop
  endfacet
  facet normal 1 0 0
    outer loop
      vertex 480 0 1060
      vertex 480 90 1060
      vertex 480 0 2400
    endloop
  endfacet
  facet normal 0 0 -1
    outer loop
      vertex 480 0 2400
      vertex 480 90 2400
      vertex 1260 0 2400
    endloop
  endfacet
  facet normal -1 0 0
    outer loop
      vertex 1260 0 2400
      vertex 1260 90 2400
      vertex 1260 0 1060
    endloop
  endfacet
  facet normal 0 0 1
    outer loop
      vertex 480 0 1060
      vertex 1260 90 1060
      vertex 480 90 1060
    endloop
  endfacet
  facet normal 1 0 0
    outer loop
      vertex 480 0 2400
      vertex 480 90 1060
      vertex 480 90 2400
    endloop
  endfacet
  facet normal -1 0 0
    outer loop
      vertex 1260 0 1060
      vertex 1260 90 2400
      vertex 1260 90 1060
    endloop
  endfacet
  facet normal 0 0 -1
    outer loop
      vertex 1260 0 2400
      vertex 480 90 2400
      vertex 1260 90 2400
    endloop
  endfacet
  facet normal 1 0 0
    outer loop
      vertex 2000 0 0
      vertex 2000 90 0
      vertex 2000 0 2300
    endloop
  endfacet
  facet normal 0 0 -1
    outer loop
      vertex 2000 0 2300
      vertex 2000 90 2300
      vertex 2900 0 2300
    endloop
  endfacet
  facet normal -1 0 0
    outer loop
      vertex 2900 0 0
      vertex 2900 0 2300
      vertex 2900 90 2300
    endloop
  endfacet
  facet normal -1 0 0
    outer loop
      vertex 2900 0 0
      vertex 2900 90 2300
      vertex 2900 90 0
    endloop
  endfacet
  facet normal 1 0 0
    outer loop
      vertex 2000 0 2300
      vertex 2000 90 0
      vertex 2000 90 2300
    endloop
  endfacet
  facet normal 0 0 -1
    outer loop
      vertex 2900 0 2300
      vertex 2000 90 2300
      vertex 2900 90 2300
    endloop
  endfacet
endsolid OpenSCAD_Model
